<svg xmlns="http://www.w3.org/2000/svg" width="64" height="64"><path d="M16.906 3.969c-1.922 0-3.492 1.255-4.125 2.969-.544-.404-1.174-.688-1.906-.688a3.348 3.348 0 0 0-3.344 3.344c0 .907.381 1.765.969 2.375-.92-.002-1.317.002-2.5 0-1.376 0-2.51 1.118-2.5 2.5l.094 15c.01 1.37 1.122 2.5 2.5 2.5L22.937 32a2.49 2.49 0 0 0 2.5-2.469.5.5 0 0 0 0-.031v-3.125l6.25 3.563a.5.5 0 0 0 .75-.438l.063-15a.5.5 0 0 0-.625-.5.5.5 0 0 0-.156.063l-6.25 3.656V14.5a2.504 2.504 0 0 0-2.5-2.5h-.063c-1.514-.003-2.115.002-3.218 0a4.518 4.518 0 0 0 1.687-3.531c0-2.478-2-4.5-4.469-4.5zm0 1c1.924 0 3.469 1.56 3.469 3.5s-1.545 3.5-3.469 3.5a3.443 3.443 0 0 1-2.937-1.625.5.5 0 0 0-.906.094c-.286.792-.963 1.399-1.813 1.53h-.375c-1.297 0-2.344-1.065-2.344-2.374a2.333 2.333 0 0 1 2.344-2.344c.69 0 1.314.346 1.75.844a.5.5 0 0 0 .875-.25c.3-1.627 1.705-2.875 3.406-2.875zm-3.312 6.343c.196.231.426.463.656.657h-1.156c.19-.2.352-.42.5-.656zM6 12.97c2.308.005 3.406-.003 4.875 0 3.644.006 6.37.018 12.094.031.838 0 1.501.66 1.5 1.5v4.063a.5.5 0 0 0 0 .03l-.032 6.907a.5.5 0 0 0 0 .031V29.5c-.008.844-.66 1.501-1.5 1.5l-16.843-.031a1.487 1.487 0 0 1-1.5-1.5l-.094-15a1.485 1.485 0 0 1 1.5-1.5zm25.5 2.406-.063 13.25-6-3.406v-3.125l.032-3.219 6.031-3.5zM14.875 16a.506.506 0 0 0 .156 1h7a.5.5 0 1 0 0-1h-7a.5.5 0 0 0-.156 0zM7.937 26c-.822 0-1.5.678-1.5 1.5s.678 1.5 1.5 1.5h8c.823 0 1.5-.678 1.5-1.5s-.677-1.5-1.5-1.5h-8zm0 1h8c.286 0 .5.214.5.5 0 .286-.214.5-.5.5h-8a.488.488 0 0 1-.5-.5c0-.286.215-.5.5-.5z" color="#000" font-family="Sans" font-weight="400" overflow="visible" style="text-indent:0;text-align:start;line-height:normal;text-transform:none;block-progression:tb;marker:none;-inkscape-font-specification:Sans"/></svg>